<svg xmlns="http://www.w3.org/2000/svg" xmlns:xlink="http://www.w3.org/1999/xlink" version="1.1" width="256" height="256" viewBox="0 0 256 256" xml:space="preserve">

<defs>
</defs>
<g style="stroke: none; stroke-width: 0; stroke-dasharray: none; stroke-linecap: butt; stroke-linejoin: miter; stroke-miterlimit: 10; fill: none; fill-rule: nonzero; opacity: 1;" transform="translate(1.4065934065934016 1.4065934065934016) scale(2.81 2.81)" >
	<path d="M 44.036 46.521 c -5.765 0.455 -10.456 5.146 -10.91 10.91 c -0.025 0.323 -0.038 0.646 -0.038 0.964 c 0 0.553 0.448 1 1 1 s 1 -0.447 1 -1 c 0 -0.266 0.011 -0.535 0.032 -0.807 c 0.378 -4.795 4.278 -8.695 9.073 -9.073 c 4.285 -0.354 8.275 2.082 9.941 6.021 c 0.215 0.509 0.804 0.746 1.311 0.531 c 0.509 -0.215 0.746 -0.802 0.531 -1.311 C 53.974 49.024 49.18 46.111 44.036 46.521 z" style="stroke: none; stroke-width: 1; stroke-dasharray: none; stroke-linecap: butt; stroke-linejoin: miter; stroke-miterlimit: 10; fill: rgba(192, 156, 109, 0.664); fill-rule: nonzero; opacity: 1;" transform=" matrix(1 0 0 1 0 0) " stroke-linecap="round" />
	<path d="M 24.325 59.396 c 0.552 0 1 -0.447 1 -1 v -3.384 h 0.9 c 1.338 0 2.525 -0.834 2.954 -2.073 c 0.219 -0.635 0.481 -1.265 0.777 -1.871 c 0.575 -1.177 0.328 -2.601 -0.614 -3.544 l -0.647 -0.647 l 4.786 -4.786 l 0.646 0.646 c 0.943 0.943 2.366 1.19 3.545 0.615 c 0.606 -0.296 1.235 -0.558 1.871 -0.777 c 1.24 -0.429 2.073 -1.616 2.073 -2.954 v -0.9 h 6.768 v 0.9 c 0 1.338 0.833 2.525 2.073 2.954 c 0.635 0.219 1.265 0.481 1.872 0.777 c 1.177 0.576 2.602 0.328 3.544 -0.615 l 0.646 -0.646 l 4.786 4.786 l -0.646 0.647 c -0.942 0.942 -1.19 2.366 -0.615 3.544 c 0.296 0.604 0.557 1.232 0.777 1.87 c 0.429 1.241 1.616 2.074 2.954 2.074 h 1.053 c 0.553 0 1 -0.447 1 -1 s -0.447 -1 -1 -1 h -1.053 c -0.486 0 -0.913 -0.292 -1.063 -0.728 c -0.247 -0.714 -0.54 -1.42 -0.871 -2.095 c -0.2 -0.41 -0.106 -0.913 0.233 -1.252 l 0.753 -0.755 c 0.35 -0.348 0.542 -0.812 0.542 -1.305 c 0.001 -0.494 -0.191 -0.958 -0.541 -1.308 l -5.002 -5.001 c -0.348 -0.349 -0.812 -0.542 -1.305 -0.542 c -0.001 0 -0.001 0 -0.002 0 c -0.493 0 -0.957 0.192 -1.306 0.542 l -0.755 0.755 c -0.341 0.339 -0.845 0.431 -1.252 0.232 c -0.68 -0.332 -1.385 -0.625 -2.096 -0.871 c -0.436 -0.15 -0.728 -0.578 -0.728 -1.063 v -1.053 c 0 -1.019 -0.828 -1.847 -1.847 -1.847 h -7.074 c -1.019 0 -1.847 0.829 -1.847 1.847 v 1.053 c 0 0.486 -0.292 0.914 -0.727 1.063 c -0.711 0.246 -1.417 0.539 -2.096 0.871 c -0.408 0.2 -0.913 0.107 -1.252 -0.233 l -0.755 -0.754 c -0.697 -0.698 -1.914 -0.699 -2.612 0 l -5.003 5.003 c -0.349 0.349 -0.541 0.813 -0.541 1.305 c 0 0.494 0.192 0.958 0.541 1.306 l 0.756 0.756 c 0.339 0.339 0.432 0.842 0.232 1.251 c -0.332 0.68 -0.625 1.385 -0.871 2.097 c -0.15 0.435 -0.577 0.727 -1.063 0.727 h -1.054 c -1.018 0 -1.847 0.828 -1.847 1.847 v 3.537 C 23.325 58.948 23.772 59.396 24.325 59.396 z" style="stroke: none; stroke-width: 1; stroke-dasharray: none; stroke-linecap: butt; stroke-linejoin: miter; stroke-miterlimit: 10; fill: rgba(192, 156, 109, 0.664); fill-rule: nonzero; opacity: 1;" transform=" matrix(1 0 0 1 0 0) " stroke-linecap="round" />
	<path d="M 76.572 59.655 c 0.017 -0.419 0.033 -0.838 0.033 -1.259 c 0 -13.356 -8.456 -25.328 -21.042 -29.79 c -1.275 -0.452 -2.132 -1.706 -2.132 -3.119 V 10.133 l 4.961 -5.635 c 0.712 -0.81 0.878 -1.923 0.434 -2.905 C 58.382 0.61 57.436 0 56.357 0 H 33.642 c -1.078 0 -2.024 0.61 -2.468 1.593 c -0.444 0.982 -0.277 2.096 0.436 2.905 l 4.959 5.635 v 15.359 c 0 1.407 -0.883 2.667 -2.197 3.137 c -13.122 4.685 -21.54 17.201 -20.947 31.146 c 0 0.001 0 0.003 0 0.004 c 0 0.002 0 0.003 0 0.005 c 0.681 15.893 13.636 29.135 29.498 30.15 c 0.704 0.045 1.404 0.067 2.102 0.067 c 8.068 0 15.669 -2.995 21.592 -8.551 c 6.039 -5.665 9.62 -13.548 9.953 -21.793 C 76.571 59.656 76.572 59.656 76.572 59.655 z M 35.045 30.512 c 2.108 -0.753 3.524 -2.771 3.524 -5.021 V 9.378 L 33.11 3.177 c -0.272 -0.31 -0.17 -0.635 -0.114 -0.76 C 33.053 2.292 33.229 2 33.642 2 h 22.715 c 0.413 0 0.589 0.292 0.646 0.417 c 0.057 0.125 0.159 0.451 -0.113 0.76 l -5.459 6.201 v 16.108 c 0 2.258 1.392 4.27 3.464 5.004 c 11.784 4.178 19.703 15.385 19.709 27.89 c -9.066 -2.744 -18.851 -2.617 -29.881 0.39 c -11.159 3.219 -20.492 3.294 -29.301 0.245 C 15.162 46.224 22.966 34.824 35.045 30.512 z M 65.25 79.991 c -6.028 5.655 -13.915 8.472 -22.198 7.946 C 28.686 87.019 16.867 75.39 15.526 61.163 c 4.266 1.39 8.644 2.091 13.271 2.091 c 5.126 0 10.556 -0.854 16.466 -2.558 c 10.851 -2.96 20.431 -3.035 29.264 -0.245 C 74.022 67.928 70.778 74.805 65.25 79.991 z" style="stroke: none; stroke-width: 1; stroke-dasharray: none; stroke-linecap: butt; stroke-linejoin: miter; stroke-miterlimit: 10; fill: rgba(192, 156, 109, 0.664); fill-rule: nonzero; opacity: 1;" transform=" matrix(1 0 0 1 0 0) " stroke-linecap="round" />
</g>
</svg>