<?xml version="1.0" encoding="utf-8"?>
<!-- Svg Vector Icons : http://www.onlinewebfonts.com/icon -->
<!DOCTYPE svg PUBLIC "-//W3C//DTD SVG 1.1//EN" "http://www.w3.org/Graphics/SVG/1.1/DTD/svg11.dtd">
<svg version="1.1" xmlns="http://www.w3.org/2000/svg" xmlns:xlink="http://www.w3.org/1999/xlink" x="0px" y="0px" viewBox="0 0 1000 1000" enable-background="new 0 0 1000 1000" xml:space="preserve">
<metadata> Svg Vector Icons : http://www.onlinewebfonts.com/icon </metadata>
<g><g transform="translate(0.000000,512.000000) scale(0.100000,-0.100000)"><path fill="rgba(192, 156, 109, 0.664)" d="M4622.6,5016.9c-693.8-70.9-1213.2-214.7-1782.4-494.5c-500.2-245.3-856.7-498.3-1263-891.2c-417.8-408.2-722.6-828-981.3-1353.1c-241.5-494.5-389.1-979.4-471.5-1552.4c-32.6-226.2-32.6-981.3,0-1207.5c136.1-950.6,504.1-1803.5,1082.9-2506.9c1353.1-1642.5,3595.5-2229,5571.5-1458.5C8043.7-3952.7,9071-2923.5,9569.3-1650.9C9772.5-1127.7,9876-625.6,9897-41c46,1326.3-446.6,2604.6-1374.2,3562.9c-421.7,435.1-833.7,736-1370.4,998.5c-483,237.7-927.6,377.6-1466.2,460C5492.8,5009.2,4789.4,5034.1,4622.6,5016.9z M5410.4,4547.3c599.9-57.5,1207.4-245.3,1723-529c391-216.6,651.6-415.9,998.5-760.9c697.6-695.7,1113.5-1517.9,1266.9-2505c46-302.8,46-958.3,0-1261.1c-153.3-985.1-569.2-1807.3-1266.9-2505c-471.5-471.5-979.4-801.1-1583.1-1027.3c-222.3-84.3-653.5-199.3-810.7-218.5l-99.7-11.5l9.6,580.7l9.6,582.6l90.1,210.8c153.3,362.2,274.1,621,454.2,977.5l176.3,343.1l159.1,51.7c433.1,141.8,789.6,408.2,1019.6,766.6c289.4,446.6,327.7,944.9,151.4,1989.4c-44.1,256.8-67.1,348.8-67.1,256.8c0-21.1-34.5-109.2-76.7-193.6c-95.8-191.7-224.2-323.9-536.6-559.6c-291.3-218.5-437-354.6-548.1-511.7C6372.5,75.9,6259.4-163.7,6192.3-386c-49.8-159.1-53.7-197.4-53.7-498.3c0-304.7,3.8-335.4,51.7-477.2l53.7-151.4l-63.2-99.7c-141.8-226.2-523.2-791.5-534.7-793.4c-5.7-1.9-17.3,116.9-23,262.5c-24.9,509.8-103.5,1144.2-208.9,1648.3L5354.8-202l47.9,51.7c86.3,90.1,224.2,322,285.6,477.3c172.5,427.4,178.2,1059.9,17.2,1504.5c-105.4,285.6-222.3,454.2-619.1,885.4c-391,425.5-544.3,663.1-628.6,981.3l-42.2,162.9l-90.1-274.1c-49.8-151.4-155.2-452.3-235.7-668.9c-308.6-837.5-356.5-1220.8-222.3-1747.9c134.2-530.9,534.7-1010,1096.3-1309c116.9-61.3,168.7-99.7,176.3-128.4c53.7-247.2,103.5-772.4,118.8-1240l11.5-392.9l-84.3,69c-201.2,162.9-435.1,337.3-632.5,469.6l-212.7,141.8l-65.2,185.9c-176.3,507.9-421.7,872-716.8,1069.4c-268.3,178.3-490.6,251.1-948.7,306.7c-348.8,44.1-555.8,95.8-726.4,180.2c-80.5,40.3-145.7,72.8-145.7,69c0-1.9,65.2-197.4,145.7-433.1c222.3-659.3,352.6-904.6,599.9-1134.6c368-339.2,948.7-502.1,1560.1-435.1l224.2,23l111.2-90.1c59.4-49.8,281.7-264.5,490.7-475.3l381.4-385.2l-11.5-277.9c-21.1-444.6-130.3-1470-180.2-1667.4l-11.5-46l-251.1,13.4c-755.1,38.3-1447,247.2-2094.8,634.4c-517.5,306.7-1057.9,826-1418.3,1360.8C743.5-1518.7,475.2-445.4,571,535.9c128.4,1322.4,829.9,2506.9,1933.8,3263.9c711.1,486.8,1573.5,757.1,2455.1,766.6C5092.2,4566.4,5295.4,4558.8,5410.4,4547.3z"/></g></g>
</svg>